<?xml version="1.0" encoding="utf-8"?>
<!-- Generator: Adobe Illustrator 23.1.0, SVG Export Plug-In . SVG Version: 6.00 Build 0)  -->
<svg version="1.1" id="Capa_1" xmlns="http://www.w3.org/2000/svg" xmlns:xlink="http://www.w3.org/1999/xlink" x="0px" y="0px"
	 viewBox="0 0 292.7 292.7" enable-background="new 0 0 292.7 292.7" xml:space="preserve">
<path fill="#7D8975" stroke="#7D8975" stroke-width="7.2313" stroke-miterlimit="10" d="M266.9,272.4H26.4c-3.1,0-5.7-2.6-5.7-5.7
	V26.3c0-3.1,2.6-5.7,5.7-5.7h240.5c3.1,0,5.7,2.6,5.7,5.7v240.5C272.6,269.9,270,272.4,266.9,272.4z"/>
<path fill="none" stroke="#FFFFFF" stroke-width="18.0783" stroke-linecap="round" stroke-miterlimit="10" d="M146.7,229.4
	c45.8,0,82.9-37.1,82.9-82.9c0-45.8-37.1-82.9-82.9-82.9c-45.8,0-82.9,37.1-82.9,82.9C63.8,192.3,100.9,229.4,146.7,229.4z"/>
<path fill="#BFD3B4" stroke="#BFD3B4" stroke-width="13.8145" stroke-linecap="round" stroke-miterlimit="10" d="M115.6,153.4l18,18
	"/>
<path fill="#BFD3B4" stroke="#BFD3B4" stroke-width="13.8145" stroke-linecap="round" stroke-miterlimit="10" d="M182.6,125.8
	L137,171.4"/>
</svg>
