<svg class="svg-icon" style="width: 1em; height: 1em;vertical-align: middle;fill: currentColor;overflow: hidden;" viewBox="0 0 1024 1024" version="1.1" xmlns="http://www.w3.org/2000/svg"><path d="M714.4 645.5l-75.2 99.7c-9.5 12.6-28.3 12.6-37.8 0.1L420.9 508.9c-8.9-11.7-26.2-12.5-36.2-1.8L125 783.9l774.6-1.3-150.1-140.1c-10.3-9.6-26.6-8.2-35.1 3z" fill="#FFD524" /><path d="M125 754.4c4.7 0 9.4-1.9 12.9-5.6l264.6-282.1 203.8 267c3.4 4.4 8.6 7 14.1 7s10.8-2.6 14.1-7l98.1-130 155 144.7c7.1 6.7 18.3 6.3 25-0.9 6.7-7.2 6.3-18.4-0.9-25L742.3 564.3c-3.7-3.4-8.6-5.1-13.6-4.7-5 0.4-9.6 3-12.6 7l-95.8 127.1L418 428.6c-3.2-4.1-8-6.7-13.2-6.9-5.2-0.3-10.3 1.8-13.8 5.6L112 724.6c-6.7 7.1-6.3 18.4 0.8 25 3.5 3.2 7.8 4.8 12.2 4.8z" fill="#6B400D" /><path d="M856.6 173.2H326c-9.8 0-17.7 7.9-17.7 17.7 0 9.8 7.9 17.7 17.7 17.7h530.6c37.7 0 68.3 30.7 68.3 68.4v473.4c0 37.7-30.7 68.4-68.3 68.4H168c-37.7 0-68.4-30.7-68.4-68.4V277c0-9.8-7.9-17.7-17.7-17.7s-17.7 7.9-17.7 17.7v473.4c0 57.2 46.6 103.8 103.8 103.8h688.6c57.2 0 103.8-46.6 103.8-103.8V277c0-57.2-46.6-103.8-103.8-103.8z" fill="#6B400D" /><path d="M227.8 208.7H255c9.8 0 17.7-7.9 17.7-17.7 0-9.8-7.9-17.7-17.7-17.7h-27.2c-9.8 0-17.7 7.9-17.7 17.7 0 9.7 7.9 17.7 17.7 17.7zM166 208.7h2c9.8 0 17.7-7.9 17.7-17.7 0-9.8-7.9-17.7-17.7-17.7h-2c-9.8 0-17.7 7.9-17.7 17.7 0 9.7 7.9 17.7 17.7 17.7zM831.3 384.6c0-57.2-46.6-103.8-103.8-103.8-57.2 0-103.8 46.6-103.8 103.8 0 57.2 46.6 103.8 103.8 103.8 57.2 0 103.8-46.6 103.8-103.8z m-172.2 0c0-37.7 30.7-68.4 68.3-68.4 37.7 0 68.4 30.7 68.4 68.4S765.2 453 727.5 453c-37.7 0-68.4-30.7-68.4-68.4z" fill="#6B400D" /></svg>