<?xml version="1.0" encoding="utf-8"?>
<!-- Generator: Adobe Illustrator 19.0.0, SVG Export Plug-In . SVG Version: 6.00 Build 0)  -->
<svg version="1.1" xmlns="http://www.w3.org/2000/svg" xmlns:xlink="http://www.w3.org/1999/xlink" x="0px" y="0px"
	 viewBox="0 0 64 64" style="enable-background:new 0 0 64 64;" xml:space="preserve">
<style type="text/css">
	.st0{display:none;}
	.st1{display:inline;fill:#FFFFFF;}
	.st2{display:inline;fill:none;stroke:#4C5159;stroke-width:2;stroke-miterlimit:10;}
	.st3{display:inline;}
	.st4{fill:none;stroke:#4C5159;stroke-width:2;stroke-miterlimit:10;}
	.st5{display:inline;fill:none;stroke:#4C5159;stroke-width:2;stroke-miterlimit:10;stroke-dasharray:1.9857,1.9857;}
	.st6{fill:none;stroke:#4C5159;stroke-width:2;stroke-miterlimit:10;stroke-dasharray:1.9857,1.9857;}
	.st7{fill:#4C5159;}
	.st8{font-family:'Montserrat-Bold';}
	.st9{font-size:7px;}
	.st10{display:inline;fill:#74E2F0;}
	.st11{display:inline;fill:#FBDA73;}
	.st12{display:inline;fill:#F08E70;}
</style>
<g id="bg" class="st0">
	<rect id="XMLID_119_" x="-218" y="-268.2" class="st1" width="500" height="600.3"/>
</g>
<g id="guideline" class="st0">
</g>
<g id="icons">
	<g id="XMLID_54_" class="st0">
		<path id="XMLID_797_" class="st2" d="M52.6,52.9H11.4c-0.5,0-1-0.4-1.1-0.9L10,49.5h18.3l0.7,1h5l0.8-1H54L53.6,52
			C53.5,52.5,53.1,52.9,52.6,52.9z"/>
		<path id="XMLID_9_" class="st2" d="M14.1,23.7H12c-0.1,0-0.3,0.1-0.3,0.3v25.6"/>
		<path id="XMLID_8_" class="st2" d="M52.3,49.5V24c0-0.1-0.1-0.3-0.3-0.3h-2.8"/>
		<line id="XMLID_324_" class="st2" x1="15.8" y1="45.5" x2="47.7" y2="45.5"/>
		<path id="XMLID_4_" class="st2" d="M46.7,41.6H16.8c-0.1,0-0.2-0.1-0.2-0.2V11.3c0-0.1,0.1-0.2,0.2-0.2h29.9
			c0.1,0,0.2,0.1,0.2,0.2v30.1C46.9,41.5,46.8,41.6,46.7,41.6z"/>
		<line id="XMLID_13_" class="st2" x1="15.8" y1="16.5" x2="46.9" y2="16.5"/>
		<line id="XMLID_14_" class="st2" x1="19.4" y1="13.6" x2="21.3" y2="13.6"/>
		<line id="XMLID_7_" class="st2" x1="22.5" y1="13.6" x2="24.4" y2="13.6"/>
		<line id="XMLID_15_" class="st2" x1="25.6" y1="13.6" x2="27.5" y2="13.6"/>
		<line id="XMLID_16_" class="st2" x1="20.3" y1="22" x2="22.2" y2="22"/>
		<line id="XMLID_36_" class="st2" x1="24.6" y1="22" x2="35.4" y2="22"/>
		<line id="XMLID_40_" class="st2" x1="40.8" y1="22" x2="37.4" y2="22"/>
		<line id="XMLID_17_" class="st2" x1="20.3" y1="25.8" x2="22.2" y2="25.8"/>
		<line id="XMLID_44_" class="st2" x1="24.4" y1="25.8" x2="29.2" y2="25.8"/>
		<line id="XMLID_48_" class="st2" x1="43.6" y1="25.8" x2="31.4" y2="25.8"/>
		<line id="XMLID_21_" class="st2" x1="20.3" y1="29.6" x2="22.2" y2="29.6"/>
		<line id="XMLID_49_" class="st2" x1="24.7" y1="29.6" x2="35.8" y2="29.6"/>
		<line id="XMLID_25_" class="st2" x1="20.3" y1="33.3" x2="22.2" y2="33.3"/>
		<line id="XMLID_50_" class="st2" x1="24.5" y1="33.3" x2="31.8" y2="33.3"/>
		<line id="XMLID_51_" class="st2" x1="39.9" y1="33.3" x2="33.9" y2="33.3"/>
		<line id="XMLID_29_" class="st2" x1="20.3" y1="37.1" x2="22.2" y2="37.1"/>
		<line id="XMLID_52_" class="st2" x1="24.6" y1="37.1" x2="37.4" y2="37.1"/>
		<line id="XMLID_53_" class="st2" x1="40.9" y1="37.1" x2="38.4" y2="37.1"/>
	</g>
	<g id="XMLID_145_" class="st0">
		<g id="XMLID_56_" class="st3">
			<path id="XMLID_79_" class="st4" d="M55.4,52.9H8.6c-0.1,0-0.2-0.1-0.2-0.2v-8.5c0-0.1,0.1-0.2,0.2-0.2h46.8
				c0.1,0,0.2,0.1,0.2,0.2v8.5C55.6,52.8,55.5,52.9,55.4,52.9z"/>
			<line id="XMLID_78_" class="st4" x1="12.9" y1="44" x2="12.9" y2="47.6"/>
			<line id="XMLID_75_" class="st4" x1="17.6" y1="44" x2="17.6" y2="47.6"/>
			<line id="XMLID_74_" class="st4" x1="22.4" y1="44" x2="22.4" y2="47.6"/>
			<line id="XMLID_70_" class="st4" x1="27.1" y1="44" x2="27.1" y2="47.6"/>
			<line id="XMLID_69_" class="st4" x1="31.8" y1="44" x2="31.8" y2="47.6"/>
			<line id="XMLID_68_" class="st4" x1="36.5" y1="44" x2="36.5" y2="47.6"/>
			<line id="XMLID_59_" class="st4" x1="41.2" y1="44" x2="41.2" y2="47.6"/>
			<line id="XMLID_58_" class="st4" x1="45.9" y1="44" x2="45.9" y2="47.6"/>
			<line id="XMLID_57_" class="st4" x1="50.6" y1="44" x2="50.6" y2="47.6"/>
		</g>
		<path id="XMLID_64_" class="st2" d="M50.6,42V11.4c0-0.1-0.1-0.2-0.2-0.2H13.2c-0.1,0-0.2,0.1-0.2,0.2V42"/>
		<line id="XMLID_65_" class="st2" x1="12.9" y1="16.5" x2="50.6" y2="16.5"/>
		<line id="XMLID_72_" class="st2" x1="16.6" y1="13.6" x2="19.1" y2="13.6"/>
		<line id="XMLID_62_" class="st2" x1="20.6" y1="13.6" x2="23.1" y2="13.6"/>
		<line id="XMLID_80_" class="st2" x1="24.6" y1="13.6" x2="27.1" y2="13.6"/>
		<polyline id="XMLID_82_" class="st2" points="45.8,29.6 17.6,29.6 17.6,20 		"/>
		<polyline id="XMLID_83_" class="st2" points="17.6,40.4 17.6,33.8 24.3,33.8 		"/>
		<polyline id="XMLID_81_" class="st2" points="27.6,40.4 27.6,33.8 34.3,33.8 		"/>
		<polyline id="XMLID_84_" class="st2" points="37.6,40.4 37.6,33.8 44.3,33.8 		"/>
	</g>
	<g id="XMLID_73_" class="st0">
		<path id="XMLID_76_" class="st2" d="M44.6,13c0-1.2-0.9-2.1-2.1-2.1H21.6c-1.2,0-2.1,0.9-2.1,2.1v38c0,1.2,0.9,2.1,2.1,2.1h20.9
			c1.2,0,2.1-0.9,2.1-2.1V13z"/>
		<line id="XMLID_91_" class="st2" x1="19.4" y1="17.3" x2="44.6" y2="17.3"/>
		<line id="XMLID_90_" class="st2" x1="28" y1="14.2" x2="36" y2="14.2"/>
		<line id="XMLID_89_" class="st2" x1="19.4" y1="46.8" x2="44.6" y2="46.8"/>
		<g id="XMLID_346_" class="st3">
			<path id="XMLID_357_" class="st4" d="M25.3,39.4V36c0-0.3,0.2-0.6,0.5-0.7l4.3-1.5v-2.4"/>
			<path id="XMLID_355_" class="st4" d="M38.7,39.4V36c0-0.3-0.2-0.6-0.5-0.7l-4.3-1.5v-2.4"/>
			<path id="XMLID_354_" class="st4" d="M35.2,26c0-1.8-1.4-3.2-3.2-3.2c-1.8,0-3.2,1.4-3.2,3.2l0.3,3.9c0,0.5,0.3,1,0.8,1.2l1.6,1
				h1l1.6-1c0.5-0.2,0.8-0.7,0.8-1.2L35.2,26z"/>
			<polyline id="XMLID_347_" class="st4" points="30.1,33.8 31.3,35.2 32.7,35.2 34,33.8 			"/>
		</g>
		<line id="XMLID_86_" class="st2" x1="22.6" y1="39.4" x2="41.8" y2="39.4"/>
	</g>
	<g id="XMLID_122_" class="st0">
		<path id="XMLID_113_" class="st2" d="M52,14.1c0,1-0.4,1.8-1,2.5c-0.6,0.6-1.5,1-2.5,1s-1.8-0.4-2.5-1c-0.6-0.6-1-1.5-1-2.5
			s0.4-1.8,1-2.5c0.6-0.6,1.5-1,2.5-1s1.8,0.4,2.5,1C51.6,12.3,52,13.2,52,14.1z"/>
		<g id="XMLID_111_" class="st3">
			<path id="XMLID_94_" class="st4" d="M27.6,41.9h-1.5V20.7c0-3.9,2.2-7.4,5.7-9.1l0,0l0,0c3.5,1.7,5.7,5.2,5.7,9.1v21.2H36"/>
			<path id="XMLID_67_" class="st4" d="M22.5,44.9h-5v-9.2c0-1.7,1-3.2,2.5-3.9l0,0l0,0c1.5,0.7,2.5,2.3,2.5,3.9V44.9z"/>
			<path id="XMLID_118_" class="st4" d="M18.2,47v3.6c0,1.2,0.7,2.3,1.8,2.9l0,0l0,0c1.1-0.5,1.8-1.6,1.8-2.9V47"/>
			<path id="XMLID_120_" class="st4" d="M30,47v3.6c0,1.2,0.7,2.3,1.8,2.9l0,0l0,0c1.1-0.5,1.8-1.6,1.8-2.9V47"/>
			<path id="XMLID_121_" class="st4" d="M41.8,47v3.6c0,1.2,0.7,2.3,1.8,2.9l0,0l0,0c1.1-0.5,1.8-1.6,1.8-2.9V47"/>
			<path id="XMLID_71_" class="st4" d="M46,44.9h-5v-9.2c0-1.7,1-3.2,2.5-3.9l0,0l0,0c1.5,0.7,2.5,2.3,2.5,3.9V44.9z"/>
			<path id="XMLID_88_" class="st4" d="M34.2,44.9h-5v-9.2c0-1.7,1-3.2,2.5-3.9l0,0l0,0c1.5,0.7,2.5,2.3,2.5,3.9V44.9z"/>
			<line id="XMLID_93_" class="st4" x1="22.5" y1="38.4" x2="26.1" y2="34.5"/>
			<line id="XMLID_92_" class="st4" x1="22.5" y1="42" x2="26.1" y2="38.2"/>
			<line id="XMLID_96_" class="st4" x1="41.2" y1="38.4" x2="37.6" y2="34.5"/>
			<line id="XMLID_95_" class="st4" x1="41.2" y1="42" x2="37.6" y2="38.2"/>
			<circle id="XMLID_66_" class="st4" cx="31.8" cy="23.7" r="2.3"/>
			<line id="XMLID_98_" class="st4" x1="26.8" y1="16.8" x2="36.8" y2="16.8"/>
			<line id="XMLID_97_" class="st4" x1="17.9" y1="39.1" x2="22.8" y2="39.1"/>
			<line id="XMLID_100_" class="st4" x1="29.6" y1="39.1" x2="34.6" y2="39.1"/>
			<line id="XMLID_102_" class="st4" x1="41.4" y1="39.1" x2="46.4" y2="39.1"/>
		</g>
		<path id="XMLID_117_" class="st2" d="M50,27.5c1.6,0,3.1,0.7,4.1,1.7c1.1,1.1,1.7,2.5,1.7,4.1c0,1.6-0.7,3.1-1.7,4.1"/>
		<path id="XMLID_116_" class="st2" d="M48.9,30.6c0.7-0.7,1.1-1.6,1.1-2.7c0-1-0.4-2-1.1-2.7c-0.7-0.7-1.6-1.1-2.7-1.1
			c-1,0-2,0.4-2.7,1.1c-0.7,0.7-1.1,1.6-1.1,2.7h-2.6"/>
		<g id="XMLID_115_" class="st3">
			<path id="XMLID_112_" class="st4" d="M8.2,22.8c0-0.8,0.3-1.5,0.9-2.1c0.5-0.5,1.3-0.9,2.1-0.9c0.8,0,1.5,0.3,2.1,0.9
				c0.5,0.5,0.9,1.3,0.9,2.1c0,0.8-0.3,1.5-0.9,2.1"/>
			<path id="XMLID_114_" class="st4" d="M13.9,21.7c0-2.2,1.8-4,4-4s4,1.8,4,4h2.4"/>
		</g>
	</g>
	<g id="XMLID_129_" class="st0">
		<g id="XMLID_124_" class="st3">
			<path id="XMLID_136_" class="st4" d="M54.3,25.2c0-0.7-0.5-1.2-1.2-1.2H41.3c-0.7,0-1.2,0.5-1.2,1.2v21.6c0,0.7,0.5,1.2,1.2,1.2
				h11.8c0.7,0,1.2-0.5,1.2-1.2V25.2z"/>
			<line id="XMLID_134_" class="st4" x1="40.1" y1="29.7" x2="54.3" y2="29.7"/>
			<line id="XMLID_133_" class="st4" x1="44.9" y1="26.9" x2="49.5" y2="26.9"/>
			<line id="XMLID_132_" class="st4" x1="40.1" y1="43.4" x2="54.3" y2="43.4"/>
		</g>
		<g id="XMLID_243_" class="st3">
			<path id="XMLID_126_" class="st4" d="M37.6,41.5h-27c-0.5,0-1-0.4-1-1V17c0-0.5,0.4-1,1-1h39c0.5,0,1,0.4,1,1v4.4"/>
			<line id="XMLID_241_" class="st4" x1="9.7" y1="36" x2="37.6" y2="36"/>
			<line id="XMLID_242_" class="st4" x1="19.9" y1="41" x2="19.9" y2="48"/>
			<line id="XMLID_244_" class="st4" x1="16.3" y1="48" x2="37.6" y2="48"/>
		</g>
		<line id="XMLID_127_" class="st5" x1="14.4" y1="21.4" x2="37.7" y2="21.4"/>
		<line id="XMLID_125_" class="st5" x1="14.4" y1="26.9" x2="37.7" y2="26.9"/>
		<line id="XMLID_128_" class="st5" x1="14.4" y1="32.4" x2="37.7" y2="32.4"/>
		<line id="XMLID_131_" class="st5" x1="42.3" y1="33.8" x2="53.2" y2="33.8"/>
		<line id="XMLID_130_" class="st5" x1="42.3" y1="39.3" x2="53.2" y2="39.3"/>
	</g>
	<g id="XMLID_138_" class="st0">
		<path id="XMLID_144_" class="st2" d="M50.9,52.9V11.3c0-0.1-0.1-0.2-0.2-0.2H13.3c-0.1,0-0.2,0.1-0.2,0.2v41.6"/>
		<line id="XMLID_143_" class="st2" x1="13.1" y1="16.4" x2="50.9" y2="16.4"/>
		<line id="XMLID_142_" class="st2" x1="16.9" y1="13.5" x2="19.4" y2="13.5"/>
		<line id="XMLID_141_" class="st2" x1="20.9" y1="13.5" x2="23.4" y2="13.5"/>
		<line id="XMLID_140_" class="st2" x1="24.9" y1="13.5" x2="27.4" y2="13.5"/>
		<polyline id="XMLID_139_" class="st2" points="46,32 17.9,32 17.9,20 		"/>
		<path id="XMLID_163_" class="st5" d="M47.4,52.9c0-4.3-1.7-8.2-4.6-11c-2.8-2.8-6.7-4.6-11-4.6s-8.2,1.7-11,4.6
			c-2.8,2.8-4.6,6.7-4.6,11"/>
		<g id="XMLID_162_" class="st3">
			<path id="XMLID_135_" class="st4" d="M43.4,52.9l0-1.2l-3.9-0.6c-0.2-0.8-0.5-1.6-1-2.3l2.4-3.2l-1.8-1.8l-3.2,2.4
				c-0.7-0.4-1.5-0.8-2.3-1L33,41.3h-2.5L30,45.2c-0.8,0.2-1.6,0.5-2.3,1l-3.2-2.4l-1.8,1.7l2.4,3.2c-0.4,0.7-0.8,1.5-1,2.3
				l-3.9,0.6l0,1.3"/>
			<path id="XMLID_77_" class="st4" d="M28.2,52.9c0-2,1.6-3.5,3.5-3.5c2,0,3.5,1.6,3.5,3.5"/>
		</g>
	</g>
	<g id="XMLID_166_" class="st0">
		<path id="XMLID_146_" class="st2" d="M52.2,52.6c0.1,0,0.3-0.1,0.3-0.3V11.7c0-0.1-0.1-0.3-0.3-0.3H11.8c-0.1,0-0.3,0.1-0.3,0.3
			v40.6c0,0.1,0.1,0.3,0.3,0.3H52.2z"/>
		<line id="XMLID_185_" class="st2" x1="11.5" y1="18.6" x2="52.5" y2="18.6"/>
		<line id="XMLID_184_" class="st2" x1="15.4" y1="14.8" x2="17.9" y2="14.8"/>
		<line id="XMLID_183_" class="st2" x1="19.6" y1="14.8" x2="22.1" y2="14.8"/>
		<line id="XMLID_182_" class="st2" x1="23.8" y1="14.8" x2="26.3" y2="14.8"/>
		<g id="XMLID_160_" class="st3">
			<path id="XMLID_165_" class="st4" d="M43.6,36.6l0-2.4l-3.9-0.6c-0.2-0.8-0.5-1.6-1-2.3l2.3-3.1l-1.7-1.7l-3.1,2.3
				c-0.7-0.4-1.5-0.8-2.3-1L33.4,24H31l-0.6,3.9c-0.8,0.2-1.6,0.5-2.3,0.9L25,26.4l-1.7,1.7l2.3,3.1c-0.4,0.7-0.8,1.5-1,2.3
				l-3.9,0.6l0,2.4l3.9,0.6c0.2,0.8,0.5,1.6,0.9,2.3l-2.3,3.1l1.7,1.7l3.1-2.3c0.7,0.4,1.5,0.8,2.3,1l0.6,3.9l2.4,0l0.6-3.9
				c0.8-0.2,1.6-0.5,2.3-0.9l3.1,2.3l1.7-1.7l-2.3-3.1c0.4-0.7,0.8-1.5,1-2.3L43.6,36.6z"/>
			<path id="XMLID_167_" class="st4" d="M35.7,35.3c0,1-0.4,1.8-1,2.5c-0.6,0.6-1.5,1-2.5,1c-1,0-1.8-0.4-2.5-1
				c-0.6-0.6-1-1.5-1-2.5c0-1,0.4-1.8,1-2.5c0.6-0.6,1.5-1,2.5-1"/>
		</g>
	</g>
	<g id="XMLID_99_" class="st0">
		<g id="XMLID_168_" class="st3">
			<path id="XMLID_170_" class="st4" d="M44,31.5v-5.1h2.2c0.1,0,0.2-0.1,0.2-0.2v-5.8c0-0.1-0.1-0.2-0.2-0.2H34.6
				c-0.1,0-0.2,0.1-0.2,0.2v5.8c0,0.1,0.1,0.2,0.2,0.2h2.2v5.1c-4.9,1.7-8.3,6.6-7.5,12.2c0.7,5.1,4.8,9.1,9.8,9.7
				c6.8,0.8,12.6-4.5,12.6-11.2C51.6,37.2,48.4,33.1,44,31.5z"/>
			<line id="XMLID_169_" class="st4" x1="36.9" y1="26.4" x2="39.3" y2="26.4"/>
		</g>
		<g id="XMLID_181_" class="st3">
			<path id="XMLID_171_" class="st4" d="M15.8,53.5L15.8,53.5c-1.9,0-3.4-1.5-3.4-3.4V20.5h6.8v29.6C19.2,51.9,17.6,53.5,15.8,53.5z
				"/>
			<line id="XMLID_173_" class="st4" x1="12.4" y1="24.9" x2="15.8" y2="24.9"/>
			<line id="XMLID_172_" class="st4" x1="12.4" y1="29.3" x2="15.8" y2="29.3"/>
			<line id="XMLID_174_" class="st4" x1="12.4" y1="33.7" x2="15.8" y2="33.7"/>
			<line id="XMLID_175_" class="st4" x1="12.4" y1="33.7" x2="15.8" y2="33.7"/>
			<line id="XMLID_176_" class="st4" x1="12.4" y1="38.2" x2="15.8" y2="38.2"/>
			<line id="XMLID_177_" class="st4" x1="12.4" y1="42.6" x2="15.8" y2="42.6"/>
			<line id="XMLID_178_" class="st4" x1="12.4" y1="47" x2="15.8" y2="47"/>
		</g>
		<path id="XMLID_189_" class="st2" d="M15.8,18.3l0-4c0-2.1,1.7-3.7,3.8-3.7l0,0c2.1,0,3.8,1.7,3.8,3.8V21c0,2.1,1.7,3.9,3.9,3.9
			l0,0c2.1,0,3.9-1.7,3.9-3.9v-5.8c0-2.6,2.1-4.7,4.7-4.7l0,0c2.6,0,4.7,2.1,4.7,4.7v2.5"/>
		<circle id="XMLID_187_" class="st2" cx="40.3" cy="41.8" r="5.2"/>
		<line id="XMLID_191_" class="st2" x1="39.3" y1="41.8" x2="41.4" y2="41.8"/>
	</g>
	<g id="XMLID_179_" class="st0">
		<g id="XMLID_224_" class="st3">
			<path id="XMLID_234_" class="st4" d="M55.4,53.2H8.6c-0.1,0-0.2-0.1-0.2-0.2v-8.5c0-0.1,0.1-0.2,0.2-0.2h46.8
				c0.1,0,0.2,0.1,0.2,0.2V53C55.6,53.1,55.5,53.2,55.4,53.2z"/>
			<line id="XMLID_233_" class="st4" x1="12.9" y1="44.3" x2="12.9" y2="47.9"/>
			<line id="XMLID_232_" class="st4" x1="17.6" y1="44.3" x2="17.6" y2="47.9"/>
			<line id="XMLID_231_" class="st4" x1="22.4" y1="44.3" x2="22.4" y2="47.9"/>
			<line id="XMLID_230_" class="st4" x1="27.1" y1="44.3" x2="27.1" y2="47.9"/>
			<line id="XMLID_229_" class="st4" x1="31.8" y1="44.3" x2="31.8" y2="47.9"/>
			<line id="XMLID_228_" class="st4" x1="36.5" y1="44.3" x2="36.5" y2="47.9"/>
			<line id="XMLID_227_" class="st4" x1="41.2" y1="44.3" x2="41.2" y2="47.9"/>
			<line id="XMLID_226_" class="st4" x1="45.9" y1="44.3" x2="45.9" y2="47.9"/>
			<line id="XMLID_225_" class="st4" x1="50.6" y1="44.3" x2="50.6" y2="47.9"/>
		</g>
		<path id="XMLID_186_" class="st2" d="M52.2,25.7H11.7c-0.1,0-0.2-0.1-0.2-0.2V11c0-0.1,0.1-0.2,0.2-0.2h40.5
			c0.1,0,0.2,0.1,0.2,0.2v14.5C52.4,25.7,52.3,25.7,52.2,25.7z"/>
		<g id="XMLID_192_" class="st3">
			<polyline id="XMLID_193_" class="st4" points="14.5,15.7 14.5,13.4 21.4,13.4 21.4,15.7 			"/>
			<line id="XMLID_197_" class="st4" x1="17.9" y1="13.5" x2="17.9" y2="19.5"/>
		</g>
		<line id="XMLID_199_" class="st2" x1="24.2" y1="13.9" x2="48.9" y2="13.9"/>
		<line id="XMLID_198_" class="st2" x1="24.2" y1="18.3" x2="48.9" y2="18.3"/>
		<line id="XMLID_200_" class="st2" x1="14.3" y1="22.7" x2="48.9" y2="22.7"/>
		<path id="XMLID_203_" class="st2" d="M21.8,40H11.7c-0.1,0-0.2-0.1-0.2-0.2V29.7c0-0.1,0.1-0.2,0.2-0.2h10.1
			c0.1,0,0.2,0.1,0.2,0.2v10.1C22,39.9,21.9,40,21.8,40z"/>
		<line id="XMLID_207_" class="st2" x1="11.5" y1="39.9" x2="22" y2="29.7"/>
		<line id="XMLID_208_" class="st2" x1="11.5" y1="29.7" x2="22" y2="39.9"/>
		<path id="XMLID_210_" class="st2" d="M37,40H26.9c-0.1,0-0.2-0.1-0.2-0.2V29.7c0-0.1,0.1-0.2,0.2-0.2H37c0.1,0,0.2,0.1,0.2,0.2
			v10.1C37.2,39.9,37.1,40,37,40z"/>
		<line id="XMLID_209_" class="st2" x1="26.7" y1="39.9" x2="37.2" y2="29.7"/>
		<line id="XMLID_205_" class="st2" x1="26.7" y1="29.7" x2="37.2" y2="39.9"/>
		<path id="XMLID_213_" class="st2" d="M52.2,40H42.1c-0.1,0-0.2-0.1-0.2-0.2V29.7c0-0.1,0.1-0.2,0.2-0.2h10.1
			c0.1,0,0.2,0.1,0.2,0.2v10.1C52.4,39.9,52.3,40,52.2,40z"/>
		<line id="XMLID_212_" class="st2" x1="41.9" y1="39.9" x2="52.4" y2="29.7"/>
		<line id="XMLID_211_" class="st2" x1="41.9" y1="29.7" x2="52.4" y2="39.9"/>
	</g>
	<g id="XMLID_220_" class="st0">
		<path id="XMLID_239_" class="st2" d="M52.2,52.6c0.1,0,0.3-0.1,0.3-0.3V11.7c0-0.1-0.1-0.3-0.3-0.3H11.8c-0.1,0-0.3,0.1-0.3,0.3
			v40.6c0,0.1,0.1,0.3,0.3,0.3H52.2z"/>
		<line id="XMLID_238_" class="st2" x1="11.5" y1="18.6" x2="52.5" y2="18.6"/>
		<line id="XMLID_236_" class="st2" x1="15.4" y1="14.8" x2="17.9" y2="14.8"/>
		<line id="XMLID_235_" class="st2" x1="19.6" y1="14.8" x2="22.1" y2="14.8"/>
		<line id="XMLID_222_" class="st2" x1="23.8" y1="14.8" x2="26.3" y2="14.8"/>
		<path id="XMLID_218_" class="st5" d="M17.1,36.9c0-2.1,0.4-4,1.2-5.8c0.8-1.8,1.8-3.4,3.2-4.7c1.3-1.3,2.9-2.4,4.7-3.2
			C28,22.4,29.9,22,32,22c2.1,0,4,0.4,5.8,1.2c1.8,0.8,3.4,1.8,4.7,3.2c1.3,1.3,2.4,2.9,3.2,4.7"/>
		<circle id="XMLID_219_" class="st2" cx="32" cy="36.9" r="2"/>
		<path id="XMLID_240_" class="st2" d="M42.4,36.9c0,5.7-4.7,10.4-10.4,10.4c-5.7,0-10.4-4.7-10.4-10.4S26.3,26.5,32,26.5
			c2.8,0,5.4,1.1,7.3,3"/>
		<line id="XMLID_221_" class="st2" x1="34" y1="36" x2="47.2" y2="29.4"/>
	</g>
	<g id="XMLID_271_" class="st0">
		<path id="XMLID_216_" class="st2" d="M34.4,50.2c0,1.1-0.9,2-2,2h-20c-1.1,0-2-0.9-2-2V13.8c0-1.1,0.9-2,2-2h20c1.1,0,2,0.9,2,2
			V50.2z"/>
		<line id="XMLID_253_" class="st2" x1="10.3" y1="17.9" x2="34.4" y2="17.9"/>
		<line id="XMLID_252_" class="st2" x1="18.5" y1="15" x2="26.2" y2="15"/>
		<line id="XMLID_251_" class="st2" x1="10.3" y1="46.2" x2="34.4" y2="46.2"/>
		<g id="XMLID_217_" class="st3">
			<path id="XMLID_257_" class="st4" d="M36.3,49.4l1.8,0l0.9-5.9c1.3-0.3,2.4-0.8,3.5-1.4l4.8,3.6l2.6-2.6l-3.6-4.8
				c0.7-1.1,1.2-2.2,1.5-3.5l5.9-0.9v-3.7l-5.9-0.9c-0.3-1.2-0.8-2.4-1.4-3.5l3.6-4.8l-2.6-2.6L42.6,22c-1.1-0.7-2.2-1.2-3.5-1.5
				l-0.8-5.9l-1.9,0"/>
			<path id="XMLID_254_" class="st4" d="M36.3,26.7c2.9,0,5.3,2.4,5.3,5.3s-2.4,5.3-5.3,5.3"/>
		</g>
		<line id="XMLID_259_" class="st2" x1="13.5" y1="23.2" x2="15.9" y2="23.2"/>
		<line id="XMLID_195_" class="st2" x1="18.5" y1="23.2" x2="20.9" y2="23.2"/>
		<line id="XMLID_261_" class="st2" x1="23.5" y1="23.2" x2="25.9" y2="23.2"/>
		<line id="XMLID_262_" class="st2" x1="28.5" y1="23.2" x2="30.9" y2="23.2"/>
		<line id="XMLID_266_" class="st2" x1="13.6" y1="28.2" x2="16" y2="28.2"/>
		<line id="XMLID_265_" class="st2" x1="18.6" y1="28.2" x2="21" y2="28.2"/>
		<line id="XMLID_264_" class="st2" x1="23.6" y1="28.2" x2="26" y2="28.2"/>
		<line id="XMLID_263_" class="st2" x1="28.6" y1="28.2" x2="31" y2="28.2"/>
		<line id="XMLID_270_" class="st2" x1="13.7" y1="33.2" x2="16.1" y2="33.2"/>
		<line id="XMLID_269_" class="st2" x1="18.7" y1="33.2" x2="21.1" y2="33.2"/>
		<line id="XMLID_268_" class="st2" x1="23.7" y1="33.2" x2="26.1" y2="33.2"/>
		<line id="XMLID_267_" class="st2" x1="28.7" y1="33.2" x2="31.1" y2="33.2"/>
		<line id="XMLID_278_" class="st2" x1="13.9" y1="42.3" x2="16.3" y2="42.3"/>
		<line id="XMLID_277_" class="st2" x1="18.9" y1="42.3" x2="21.3" y2="42.3"/>
		<line id="XMLID_276_" class="st2" x1="23.9" y1="42.3" x2="26.3" y2="42.3"/>
		<line id="XMLID_275_" class="st2" x1="28.9" y1="42.3" x2="31.3" y2="42.3"/>
	</g>
	<g id="XMLID_287_" class="st0">
		<path id="XMLID_273_" class="st2" d="M38.7,53.7H18c-0.1,0-0.2-0.1-0.2-0.2V30.6c0-0.1,0.1-0.2,0.2-0.2h20.7
			c0.1,0,0.2,0.1,0.2,0.2v22.9C38.9,53.6,38.8,53.7,38.7,53.7z"/>
		<line id="XMLID_279_" class="st2" x1="17.8" y1="38.2" x2="38.9" y2="38.2"/>
		<line id="XMLID_274_" class="st2" x1="17.8" y1="46.2" x2="38.9" y2="46.2"/>
		<line id="XMLID_281_" class="st2" x1="21.9" y1="50.2" x2="24.1" y2="50.2"/>
		<line id="XMLID_280_" class="st2" x1="27.1" y1="50.2" x2="29.3" y2="50.2"/>
		<line id="XMLID_282_" class="st2" x1="32.4" y1="50.2" x2="34.5" y2="50.2"/>
		<g id="XMLID_385_" class="st3">
			<path id="XMLID_286_" class="st4" d="M49,41.5v-3.9h3c0.1,0,0.2-0.1,0.1-0.2l-6.8-6.8c0,0-0.1,0-0.2,0l-3.9,3.9"/>
			<line id="XMLID_387_" class="st6" x1="49" y1="53.7" x2="49" y2="42.5"/>
			<line id="XMLID_293_" class="st6" x1="44" y1="53.7" x2="44" y2="38.5"/>
		</g>
		<path id="XMLID_290_" class="st2" d="M16.2,25.5c-0.7-1.4-1.1-3-1.1-4.7c0-2.9,1.2-5.5,3.1-7.4c1.9-1.9,4.5-3.1,7.4-3.1
			c2.9,0,5.5,1.2,7.4,3.1c1.9,1.9,3.1,4.5,3.1,7.4"/>
		<path id="XMLID_289_" class="st2" d="M52.9,32.8c1-1.5,1.6-3.3,1.6-5.2c0-5.2-4.2-9.4-9.4-9.4h-9.2"/>
		<path id="XMLID_292_" class="st2" d="M15.6,35c-3.3,0-6.1-2.7-6.1-6.1s2.7-6.1,6.1-6.1"/>
	</g>
	<g id="XMLID_308_" class="st0">
		<g id="XMLID_248_" class="st3">
			<path id="XMLID_250_" class="st4" d="M39,34.1l3.4-0.5l0-2.2L39,31c-0.2-0.7-0.5-1.4-0.8-2l2.1-2.8l-1.5-1.5l-2.8,2.1
				c-0.6-0.4-1.3-0.7-2-0.8l-0.5-3.4h-2.2l-0.5,3.4c-0.7,0.2-1.4,0.5-2,0.8L26,24.6l-1.5,1.5l2.1,2.8c-0.4,0.6-0.7,1.3-0.8,2
				l-3.4,0.5l0,2.2l3.4,0.5c0.2,0.7,0.5,1.4,0.8,2l-2.1,2.8l1.5,1.5l2.8-2.1c0.6,0.4,1.3,0.7,2,0.8l0.5,3.4"/>
			<circle id="XMLID_249_" class="st4" cx="32.3" cy="32.5" r="3.1"/>
		</g>
		<g id="XMLID_304_" class="st3">
			<path id="XMLID_307_" class="st4" d="M50.4,21.4v-3.9h3c0.1,0,0.2-0.1,0.1-0.2l-6.8-6.8c0,0-0.1,0-0.2,0l-6.8,6.8
				c-0.1,0.1,0,0.2,0.1,0.2h3v4.1"/>
			<line id="XMLID_306_" class="st6" x1="50.4" y1="33.6" x2="50.4" y2="21.4"/>
		</g>
		<g id="XMLID_309_" class="st3">
			<path id="XMLID_311_" class="st4" d="M13.8,42.6v3.9h-3c-0.1,0-0.2,0.1-0.1,0.2l6.8,6.8c0,0,0.1,0,0.2,0l6.8-6.8
				c0.1-0.1,0-0.2-0.1-0.2h-3v-4.1"/>
			<line id="XMLID_310_" class="st6" x1="13.8" y1="30.4" x2="13.8" y2="42.6"/>
		</g>
		<path id="XMLID_305_" class="st2" d="M20.9,25.2C20.3,24,20,22.7,20,21.3c0-2.4,1-4.6,2.6-6.2c1.6-1.6,3.8-2.6,6.2-2.6
			c2.4,0,4.6,1,6.2,2.6c1.6,1.6,2.6,3.8,2.6,6.2"/>
		<path id="XMLID_291_" class="st2" d="M34.4,49.3c-0.6-1.2-0.9-2.5-0.9-3.9c0-2.4,1-4.6,2.6-6.2c1.6-1.6,3.8-2.6,6.2-2.6
			c2.4,0,4.6,1,6.2,2.6c1.6,1.6,2.6,3.8,2.6,6.2l4.4,0"/>
		<path id="XMLID_303_" class="st2" d="M19.7,20.5c-1.6,0-3,0.6-4.1,1.7c-1,1-1.7,2.5-1.7,4.1H8.6"/>
	</g>
	<g id="XMLID_300_" class="st0">
		<path id="XMLID_295_" class="st2" d="M35.2,31.1V29c2.3-1.5,3.8-4,3.8-7c0-4.6-3.7-8.3-8.3-8.3s-8.3,3.7-8.3,8.3
			c0,2.9,1.5,5.5,3.8,7v2.1"/>
		<g id="XMLID_298_" class="st3">
			<path id="XMLID_299_" class="st6" d="M18.3,22.4c0-6.8,5.5-12.4,12.4-12.4S43,15.6,43,22.4"/>
		</g>
		<g id="XMLID_294_" class="st3">
			<path id="XMLID_297_" class="st4" d="M23.1,33.2h-6.9v20.6c0,0.1,0.1,0.1,0.1,0.1H47c0.1,0,0.1-0.1,0.1-0.1v-19l3.2-4
				c0,0,0,0,0,0h-7c0,0,0,0,0,0l-2.2,2.4h-6.3H23.1z"/>
			<path id="XMLID_369_" class="st4" d="M16.2,33.2l-2.6-3.8c0,0,0-0.1,0-0.1h4.9c0,0,0,0,0,0l2.9,3.9"/>
			<line id="XMLID_370_" class="st4" x1="41.2" y1="53.9" x2="41.2" y2="35"/>
			<line id="XMLID_386_" class="st4" x1="45.7" y1="35" x2="43" y2="35"/>
		</g>
		<path id="XMLID_296_" class="st2" d="M33.3,21.6c0,0.7-0.3,1.4-0.8,1.9c-0.5,0.5-1.1,0.8-1.9,0.8c-0.7,0-1.4-0.3-1.9-0.8
			C28.3,23,28,22.4,28,21.6c0-0.7,0.3-1.4,0.8-1.9c0.5-0.5,1.1-0.8,1.9-0.8c0.7,0,1.4,0.3,1.9,0.8C33,20.2,33.3,20.9,33.3,21.6z"/>
		<line id="XMLID_301_" class="st2" x1="30.7" y1="24.2" x2="30.7" y2="31.2"/>
	</g>
	<g id="XMLID_359_" class="st0">
		<g id="XMLID_339_" class="st3">
			<path id="XMLID_351_" class="st4" d="M55.4,54.1H8.6c-0.1,0-0.2-0.1-0.2-0.2v-8.5c0-0.1,0.1-0.2,0.2-0.2h46.8
				c0.1,0,0.2,0.1,0.2,0.2v8.5C55.6,54.1,55.5,54.1,55.4,54.1z"/>
			<line id="XMLID_350_" class="st4" x1="12.9" y1="45.3" x2="12.9" y2="48.9"/>
			<line id="XMLID_349_" class="st4" x1="17.6" y1="45.3" x2="17.6" y2="48.9"/>
			<line id="XMLID_348_" class="st4" x1="22.4" y1="45.3" x2="22.4" y2="48.9"/>
			<line id="XMLID_345_" class="st4" x1="27.1" y1="45.3" x2="27.1" y2="48.9"/>
			<line id="XMLID_344_" class="st4" x1="31.8" y1="45.3" x2="31.8" y2="48.9"/>
			<line id="XMLID_343_" class="st4" x1="36.5" y1="45.3" x2="36.5" y2="48.9"/>
			<line id="XMLID_342_" class="st4" x1="41.2" y1="45.3" x2="41.2" y2="48.9"/>
			<line id="XMLID_341_" class="st4" x1="45.9" y1="45.3" x2="45.9" y2="48.9"/>
			<line id="XMLID_340_" class="st4" x1="50.6" y1="45.3" x2="50.6" y2="48.9"/>
		</g>
		<g id="XMLID_322_" class="st3">
			<path id="XMLID_314_" class="st4" d="M16,42.2V18.5c0-0.1,0.1-0.2,0.2-0.2h30.8c0.1,0,0.2,0.1,0.2,0.2v23.7"/>
			<line id="XMLID_318_" class="st4" x1="16" y1="38.4" x2="47.5" y2="38.4"/>
			<path id="XMLID_316_" class="st4" d="M16,34.3c1.2-1.6,3.1-2.6,5.2-2.6c3.6,0,6.6,2.9,6.6,6.6"/>
			<path id="XMLID_321_" class="st4" d="M25.6,34.3c1.2-1.6,3.1-2.6,5.2-2.6c3.6,0,6.6,2.9,6.6,6.6"/>
			<circle id="XMLID_319_" class="st4" cx="38.5" cy="24.7" r="2.9"/>
			<line id="XMLID_323_" class="st4" x1="39" y1="35" x2="44.6" y2="35"/>
		</g>
		<line id="XMLID_326_" class="st2" x1="12.1" y1="40.4" x2="12.1" y2="42.2"/>
		<line id="XMLID_325_" class="st2" x1="12.1" y1="35.3" x2="12.1" y2="37.1"/>
		<line id="XMLID_327_" class="st2" x1="12.1" y1="30.2" x2="12.1" y2="32"/>
		<line id="XMLID_328_" class="st2" x1="12.1" y1="25.1" x2="12.1" y2="26.9"/>
		<line id="XMLID_331_" class="st2" x1="12.1" y1="20" x2="12.1" y2="21.8"/>
		<line id="XMLID_333_" class="st2" x1="12.1" y1="15" x2="12.1" y2="16.7"/>
		<line id="XMLID_335_" class="st2" x1="12.1" y1="9.9" x2="12.1" y2="11.7"/>
		<line id="XMLID_358_" class="st2" x1="51.1" y1="40.4" x2="51.1" y2="42.2"/>
		<line id="XMLID_356_" class="st2" x1="51.1" y1="35.3" x2="51.1" y2="37.1"/>
		<line id="XMLID_353_" class="st2" x1="51.1" y1="30.2" x2="51.1" y2="32"/>
		<line id="XMLID_352_" class="st2" x1="51.1" y1="25.1" x2="51.1" y2="26.9"/>
		<line id="XMLID_338_" class="st2" x1="51.1" y1="20" x2="51.1" y2="21.8"/>
		<line id="XMLID_337_" class="st2" x1="51.1" y1="15" x2="51.1" y2="16.7"/>
		<line id="XMLID_336_" class="st2" x1="51.1" y1="9.9" x2="51.1" y2="11.7"/>
		<line id="XMLID_360_" class="st2" x1="18.4" y1="13.1" x2="45.2" y2="13.1"/>
		<polyline id="XMLID_362_" class="st2" points="43.2,10.1 46,13 43.2,16.1 		"/>
		<polyline id="XMLID_332_" class="st2" points="20.4,10.1 17.6,13 20.4,16.1 		"/>
	</g>
	<g id="XMLID_388_" class="st0">
		<g id="XMLID_361_" class="st3">
			<path id="XMLID_384_" class="st4" d="M16.9,18.8l-1.5,2.6l16.8,19.1c0.1,0.1,0.1,0.1,0.2,0l16.8-19.1L44.9,14H24.1"/>
			<line id="XMLID_383_" class="st4" x1="15.4" y1="21.4" x2="49.2" y2="21.4"/>
			<line id="XMLID_382_" class="st4" x1="32.3" y1="40.5" x2="24.6" y2="22.9"/>
			<line id="XMLID_381_" class="st4" x1="32.3" y1="40.1" x2="39.8" y2="22.9"/>
			<line id="XMLID_791_" class="st4" x1="32.3" y1="22.9" x2="32.3" y2="40.1"/>
			<polyline id="XMLID_377_" class="st4" points="28.5,13.8 24.1,19.8 22.9,18.3 			"/>
			<polyline id="XMLID_374_" class="st4" points="36.6,13.8 32.1,19.8 28.2,14.7 			"/>
			<polyline id="XMLID_373_" class="st4" points="44.6,13.8 40.2,19.8 36.2,14.7 			"/>
			<g id="XMLID_364_">
				<line id="XMLID_372_" class="st4" x1="19.5" y1="9.3" x2="19.5" y2="11.5"/>
				<line id="XMLID_371_" class="st4" x1="23.6" y1="11.7" x2="21.7" y2="12.8"/>
				<line id="XMLID_368_" class="st4" x1="23.6" y1="16.4" x2="21.7" y2="15.3"/>
				<line id="XMLID_367_" class="st4" x1="19.5" y1="18.8" x2="19.5" y2="16.6"/>
				<line id="XMLID_366_" class="st4" x1="15.5" y1="16.4" x2="17.4" y2="15.3"/>
				<line id="XMLID_365_" class="st4" x1="15.4" y1="11.7" x2="17.3" y2="12.8"/>
			</g>
		</g>
		<path id="XMLID_413_" class="st2" d="M43,32.7h8.8c0.1,0,0.3,0.1,0.3,0.3v21.4c0,0.1-0.1,0.3-0.3,0.3H12.3c-0.1,0-0.3-0.1-0.3-0.3
			V33c0-0.1,0.1-0.3,0.3-0.3h9"/>
		<line id="XMLID_390_" class="st2" x1="15.3" y1="37.2" x2="18.1" y2="37.2"/>
		<line id="XMLID_392_" class="st2" x1="15.3" y1="42.8" x2="18.1" y2="42.8"/>
		<line id="XMLID_393_" class="st2" x1="20.3" y1="42.8" x2="23.1" y2="42.8"/>
		<line id="XMLID_394_" class="st2" x1="25.3" y1="42.8" x2="28.1" y2="42.8"/>
		<line id="XMLID_397_" class="st2" x1="30.3" y1="42.8" x2="33.2" y2="42.8"/>
		<line id="XMLID_398_" class="st2" x1="35.4" y1="42.8" x2="38.2" y2="42.8"/>
		<line id="XMLID_402_" class="st2" x1="40.4" y1="42.8" x2="43.2" y2="42.8"/>
		<line id="XMLID_403_" class="st2" x1="45.4" y1="42.8" x2="48.3" y2="42.8"/>
		<line id="XMLID_410_" class="st2" x1="15.3" y1="46.8" x2="18.1" y2="46.8"/>
		<line id="XMLID_409_" class="st2" x1="20.3" y1="46.8" x2="23.1" y2="46.8"/>
		<line id="XMLID_408_" class="st2" x1="25.3" y1="46.8" x2="28.1" y2="46.8"/>
		<line id="XMLID_407_" class="st2" x1="30.3" y1="46.8" x2="33.2" y2="46.8"/>
		<line id="XMLID_406_" class="st2" x1="35.4" y1="46.8" x2="38.2" y2="46.8"/>
		<line id="XMLID_405_" class="st2" x1="40.4" y1="46.8" x2="43.2" y2="46.8"/>
		<line id="XMLID_404_" class="st2" x1="45.4" y1="46.8" x2="48.3" y2="46.8"/>
		<line id="XMLID_418_" class="st2" x1="15.3" y1="50.8" x2="18.1" y2="50.8"/>
		<line id="XMLID_416_" class="st2" x1="20.3" y1="50.8" x2="23.1" y2="50.8"/>
		<line id="XMLID_414_" class="st2" x1="25.2" y1="50.8" x2="38.2" y2="50.8"/>
		<line id="XMLID_412_" class="st2" x1="40.4" y1="50.8" x2="43.2" y2="50.8"/>
		<line id="XMLID_411_" class="st2" x1="45.4" y1="50.8" x2="48.3" y2="50.8"/>
		<line id="XMLID_389_" class="st2" x1="20.3" y1="37.2" x2="23.1" y2="37.2"/>
		<line id="XMLID_395_" class="st2" x1="40.4" y1="37.2" x2="43.2" y2="37.2"/>
		<line id="XMLID_396_" class="st2" x1="45.4" y1="37.2" x2="48.3" y2="37.2"/>
	</g>
	<g id="XMLID_431_" class="st0">
		<g id="XMLID_419_" class="st3">
			<path id="XMLID_425_" class="st4" d="M52.5,15.2c0.6,0,1,0.4,1,1V41c0,0.6-0.4,1-1,1h-41c-0.6,0-1-0.4-1-1V16.2c0-0.6,0.4-1,1-1
				H52.5z"/>
			<line id="XMLID_423_" class="st4" x1="10.5" y1="36.2" x2="53.5" y2="36.2"/>
			<line id="XMLID_422_" class="st4" x1="21.3" y1="41.4" x2="21.3" y2="48.8"/>
			<line id="XMLID_421_" class="st4" x1="42.3" y1="41.4" x2="42.3" y2="48.8"/>
			<line id="XMLID_420_" class="st4" x1="17.5" y1="48.8" x2="46.2" y2="48.8"/>
		</g>
		<g id="XMLID_428_" class="st3">
			<path id="XMLID_426_" class="st4" d="M17.9,32.8V21.3c0-0.5,0.4-0.9,0.9-0.9h6.1c0.5,0,0.9,0.4,0.9,0.9v11.6"/>
			<line id="XMLID_427_" class="st4" x1="18.2" y1="26.6" x2="25.8" y2="26.6"/>
			<path id="XMLID_424_" class="st4" d="M32.2,32.8V21.3c0-0.5,0.4-1,1-1h6.7c0.5,0,1,0.4,1,1v4.3c0,0.5-0.4,1-1,1h-7.6"/>
			<line id="XMLID_429_" class="st4" x1="46.2" y1="19.7" x2="46.2" y2="32.8"/>
		</g>
		<line id="XMLID_433_" class="st2" x1="44.6" y1="20.4" x2="47.9" y2="20.4"/>
		<line id="XMLID_430_" class="st2" x1="44.6" y1="31.8" x2="47.8" y2="31.8"/>
	</g>
	<g id="XMLID_438_" class="st0">
		<g id="XMLID_434_" class="st3">
			<path id="XMLID_439_" class="st4" d="M42,23.4c0.1,6.8-8.4,14.6-9.4,15.5c-0.1,0.1-0.1,0.1-0.2,0c-1-0.9-9.4-8.7-9.4-15.5
				c0-5.2,4.2-9.5,9.5-9.5C37.8,13.9,42,18.1,42,23.4z"/>
			<circle id="XMLID_440_" class="st4" cx="32.5" cy="23.4" r="5.2"/>
		</g>
		<path id="XMLID_452_" class="st5" d="M22.3,32.7c-2.3-2.6-3.5-6-3.3-9.7c0.2-3.7,2-7,4.6-9.2c2.6-2.3,6-3.5,9.7-3.3
			c3.7,0.2,7,2,9.2,4.6c2.3,2.6,3.5,6,3.3,9.7c-0.2,3.7-2,7-4.6,9.2"/>
		<g id="XMLID_435_" class="st3">
			<path id="XMLID_436_" class="st4" d="M54.2,53.6H9.8c-0.1,0-0.2-0.1-0.2-0.2l-1-5c0-0.1,0.1-0.3,0.2-0.3h20.1l1,1h4.1l1-1h20.1
				c0.1,0,0.3,0.1,0.2,0.3l-1,5C54.4,53.5,54.3,53.6,54.2,53.6z"/>
			<path id="XMLID_501_" class="st4" d="M15.3,23.7h-3.9c-0.2,0-0.3,0.1-0.3,0.3v21.7"/>
			<path id="XMLID_500_" class="st4" d="M52.9,45.7V24c0-0.2-0.1-0.3-0.3-0.3h-4.2"/>
		</g>
		<polyline id="XMLID_437_" class="st2" points="15.9,43.1 48.4,43.1 48.4,36.1 		"/>
	</g>
	<g id="XMLID_446_" class="st0">
		<path id="XMLID_454_" class="st2" d="M51.8,45.5V11.6c0-0.1-0.1-0.3-0.3-0.3h-40c-0.1,0-0.3,0.1-0.3,0.3v40.6"/>
		<line id="XMLID_453_" class="st2" x1="11.3" y1="17.1" x2="51.8" y2="17.1"/>
		<line id="XMLID_451_" class="st2" x1="15.3" y1="14" x2="18" y2="14"/>
		<line id="XMLID_450_" class="st2" x1="19.6" y1="14" x2="22.2" y2="14"/>
		<line id="XMLID_449_" class="st2" x1="23.9" y1="14" x2="26.5" y2="14"/>
		<polyline id="XMLID_442_" class="st2" points="21.4,31.2 16.3,31.2 16.3,20.9 45.9,20.9 45.9,26.1 		"/>
		<polyline id="XMLID_445_" class="st2" points="21.5,35.7 16.3,35.7 16.3,42.8 24.2,42.8 		"/>
		<path id="XMLID_460_" class="st2" d="M52.7,50.1l-2.5,2.5c-0.1,0.1-0.2,0.1-0.3,0l-6.3-6.3c-0.1-0.1-0.1-0.2,0-0.3l2.5-2.5
			c0.1-0.1,0.2-0.1,0.3,0l6.3,6.3C52.7,49.9,52.7,50,52.7,50.1z"/>
		<line id="XMLID_458_" class="st2" x1="42.2" y1="42.1" x2="44.4" y2="44.3"/>
		<circle id="XMLID_455_" class="st2" cx="34.8" cy="34.2" r="11"/>
		<polyline id="XMLID_443_" class="st2" points="30.7,33.5 33.7,36.5 38.8,31.3 		"/>
	</g>
	<g id="XMLID_473_" class="st0">
		<g id="XMLID_475_" class="st3">
			<path id="XMLID_489_" class="st4" d="M33.7,40.1v-9.7c0-0.8-0.7-1.5-1.5-1.5l0,0c-0.8,0-1.5,0.7-1.5,1.5v11.9"/>
			<path id="XMLID_488_" class="st4" d="M36.6,37.6v-2.5c0-0.8-0.7-1.5-1.5-1.5l0,0c-0.8,0-1.5,0.7-1.5,1.5v2.5"/>
			<path id="XMLID_483_" class="st4" d="M39.6,40.1v-3.5c0-0.8-0.7-1.5-1.5-1.5l0,0c-0.8,0-1.5,0.7-1.5,1.5v3.5"/>
			<path id="XMLID_481_" class="st4" d="M39.6,39.5v-1.4c0-0.8,0.7-1.5,1.5-1.5l0,0c0.8,0,1.5,0.7,1.5,1.5v8.3c0,0.4-0.2,0.7-0.4,1
				L40.6,49c-0.2,0.2-0.4,0.5-0.4,0.8v0.4"/>
			<path id="XMLID_478_" class="st4" d="M30.8,39.6h-2.1c-0.5,0-1,0.4-1,1v6.5c0,0.5,0.3,1,0.8,1.2l1.2,0.6c0.5,0.2,0.8,0.7,0.8,1.2
				v0"/>
			<path id="XMLID_477_" class="st4" d="M28.2,54.4v-3.7c0-0.1,0.1-0.2,0.2-0.2h13.9c0.1,0,0.2,0.1,0.2,0.2v3.7"/>
		</g>
		<path id="XMLID_462_" class="st2" d="M29,31.4c-0.4-0.4-0.8-0.9-1-1.5c-0.2-0.5-0.4-1.2-0.4-1.8c0-0.6,0.1-1.2,0.4-1.8
			c0.2-0.5,0.6-1,1-1.5c0.4-0.4,0.9-0.8,1.5-1c0.5-0.2,1.2-0.4,1.8-0.4c0.6,0,1.2,0.1,1.8,0.4c0.5,0.2,1,0.6,1.5,1
			c0.4,0.4,0.8,0.9,1,1.5c0.2,0.5,0.4,1.2,0.4,1.8c0,0.6-0.1,1.2-0.4,1.8"/>
		<line id="XMLID_463_" class="st5" x1="19.1" y1="28.3" x2="25.4" y2="28.3"/>
		<line id="XMLID_456_" class="st5" x1="22.2" y1="18.7" x2="26.8" y2="23.3"/>
		<line id="XMLID_459_" class="st5" x1="32.3" y1="15.2" x2="32.4" y2="20.7"/>
		<line id="XMLID_464_" class="st5" x1="41.2" y1="17.9" x2="36.8" y2="22.4"/>
		<line id="XMLID_465_" class="st5" x1="44.9" y1="28.3" x2="39" y2="28.3"/>
		<circle id="XMLID_466_" class="st2" cx="15.3" cy="28.3" r="2.1"/>
		<circle id="XMLID_467_" class="st2" cx="32.2" cy="11.6" r="2.1"/>
		<circle id="XMLID_469_" class="st2" cx="19.8" cy="16.1" r="2.1"/>
		<circle id="XMLID_470_" class="st2" cx="43.6" cy="15.2" r="2.1"/>
		<circle id="XMLID_468_" class="st2" cx="48.7" cy="28.3" r="2.1"/>
	</g>
	<g id="XMLID_498_" class="st0">
		<g id="XMLID_513_" class="st3">
			<path id="XMLID_523_" class="st4" d="M55.4,53.8H8.6c-0.1,0-0.2-0.1-0.2-0.2v-8.5c0-0.1,0.1-0.2,0.2-0.2h46.8
				c0.1,0,0.2,0.1,0.2,0.2v8.5C55.6,53.7,55.5,53.8,55.4,53.8z"/>
			<line id="XMLID_522_" class="st4" x1="12.9" y1="44.9" x2="12.9" y2="48.5"/>
			<line id="XMLID_521_" class="st4" x1="17.6" y1="44.9" x2="17.6" y2="48.5"/>
			<line id="XMLID_520_" class="st4" x1="22.4" y1="44.9" x2="22.4" y2="48.5"/>
			<line id="XMLID_519_" class="st4" x1="27.1" y1="44.9" x2="27.1" y2="48.5"/>
			<line id="XMLID_518_" class="st4" x1="31.8" y1="44.9" x2="31.8" y2="48.5"/>
			<line id="XMLID_517_" class="st4" x1="36.5" y1="44.9" x2="36.5" y2="48.5"/>
			<line id="XMLID_516_" class="st4" x1="41.2" y1="44.9" x2="41.2" y2="48.5"/>
			<line id="XMLID_515_" class="st4" x1="45.9" y1="44.9" x2="45.9" y2="48.5"/>
			<line id="XMLID_514_" class="st4" x1="50.6" y1="44.9" x2="50.6" y2="48.5"/>
		</g>
		<path id="XMLID_512_" class="st2" d="M49.8,42.9V10.5c0-0.1-0.1-0.3-0.3-0.3H14.1c-0.1,0-0.3,0.1-0.3,0.3v32.4"/>
		<line id="XMLID_511_" class="st2" x1="13.8" y1="15.9" x2="49.8" y2="15.9"/>
		<line id="XMLID_510_" class="st2" x1="17.7" y1="12.8" x2="19.6" y2="12.8"/>
		<line id="XMLID_496_" class="st2" x1="21.7" y1="12.8" x2="23.6" y2="12.8"/>
		<line id="XMLID_497_" class="st2" x1="25.7" y1="12.8" x2="27.6" y2="12.8"/>
		<path id="XMLID_471_" class="st2" d="M27.9,42.6V28.3l3.6-1.8c0,0,0,0,0-0.1v-5.7c0,0,0,0,0-0.1l-3.1-1.8c-0.1,0-0.2,0-0.2,0.1
			v4.5L25.1,25L22,23.5v-4.5c0-0.1-0.1-0.2-0.2-0.1l-3.1,1.8c0,0,0,0,0,0.1v5.7c0,0,0,0.1,0,0.1l3.9,1.9v14.1"/>
		<g id="XMLID_491_" class="st3">
			<polyline id="XMLID_494_" class="st4" points="43.2,42.6 43.2,37.3 38.3,37.3 38.3,42.6 			"/>
			<line id="XMLID_509_" class="st4" x1="45.4" y1="37.3" x2="36" y2="37.3"/>
			<polyline id="XMLID_495_" class="st4" points="39.2,37.1 39.2,23.3 38.6,23.3 38.9,18.6 42.5,18.6 42.9,23.3 42.3,23.3 
				42.3,37.1 			"/>
		</g>
	</g>
	<g id="XMLID_492_" class="st0">
		<polygon id="XMLID_526_" class="st2" points="40.3,52.1 23.7,52.1 22.6,49.7 22.6,42.6 41.4,42.6 41.4,49.6 		"/>
		<rect id="XMLID_525_" x="29.4" y="52.1" class="st2" width="5.3" height="3"/>
		<path id="XMLID_524_" class="st2" d="M45.3,28.1c0-7.3-5.9-13.3-13.3-13.3s-13.3,5.9-13.3,13.3c0,4.7,2.4,8.8,6.1,11.1v3.3h14.4
			v-3.3C42.9,36.9,45.3,32.8,45.3,28.1z"/>
		<line id="XMLID_508_" class="st2" x1="22.6" y1="47.3" x2="30.8" y2="47.3"/>
		<g id="XMLID_504_" class="st3">
			<path id="XMLID_506_" class="st6" d="M15.5,39.7c-2.1-3.1-3.3-6.9-3.3-11C12.2,17.8,21.1,9,32,9s19.8,8.9,19.8,19.8
				c0,4.4-1.5,8.5-3.9,11.8"/>
		</g>
		<polyline id="XMLID_493_" class="st2" points="33.9,18.8 28.9,27.8 35.5,27.8 29.4,36.9 		"/>
	</g>
	<g id="XMLID_542_">
		<path id="XMLID_535_" class="st4" d="M51.1,51.4c0.1,0,0.3-0.1,0.3-0.3V12.8c0-0.1-0.1-0.3-0.3-0.3H12.9c-0.1,0-0.3,0.1-0.3,0.3
			v38.3c0,0.1,0.1,0.3,0.3,0.3H51.1z"/>
		<line id="XMLID_534_" class="st4" x1="12.6" y1="19.4" x2="51.4" y2="19.4"/>
		<line id="XMLID_533_" class="st4" x1="16.3" y1="15.7" x2="18.7" y2="15.7"/>
		<line id="XMLID_532_" class="st4" x1="20.2" y1="15.7" x2="22.6" y2="15.7"/>
		<line id="XMLID_531_" class="st4" x1="24.2" y1="15.7" x2="26.6" y2="15.7"/>
		<circle id="XMLID_527_" class="st4" cx="22" cy="29.3" r="2.1"/>
		<circle id="XMLID_528_" class="st4" cx="32" cy="43.5" r="2.1"/>
		<circle id="XMLID_529_" class="st4" cx="42.1" cy="35" r="2.1"/>
		<line id="XMLID_536_" class="st4" x1="22" y1="33.9" x2="22" y2="45.6"/>
		<line id="XMLID_530_" class="st4" x1="31.7" y1="27.3" x2="31.7" y2="39.7"/>
		<line id="XMLID_537_" class="st4" x1="42.1" y1="39.1" x2="42.1" y2="45.6"/>
		<line id="XMLID_540_" class="st4" x1="42.1" y1="27.3" x2="42.1" y2="31.4"/>
	</g>
	<g id="XMLID_547_" class="st0">
		<g id="XMLID_551_" class="st3">
			<path id="XMLID_549_" class="st4" d="M41.7,20.7h10.8c0.6,0,1,0.4,1,1v24.8c0,0.6-0.4,1-1,1h-41c-0.6,0-1-0.4-1-1V21.7
				c0-0.6,0.4-1,1-1h10.7"/>
			<line id="XMLID_558_" class="st4" x1="10.5" y1="41.7" x2="53.5" y2="41.7"/>
			<line id="XMLID_556_" class="st4" x1="21.3" y1="47" x2="21.3" y2="54.3"/>
			<line id="XMLID_553_" class="st4" x1="42.3" y1="47" x2="42.3" y2="54.3"/>
			<line id="XMLID_552_" class="st4" x1="17.5" y1="54.3" x2="46.2" y2="54.3"/>
		</g>
		<g id="XMLID_548_" class="st3">
			<path id="XMLID_538_" class="st4" d="M38.6,30.1H25.4c-0.1,0-0.2-0.1-0.2-0.2V17.7c0-0.1,0.1-0.2,0.2-0.2h13.1
				c0.1,0,0.2,0.1,0.2,0.2V30C38.8,30.1,38.7,30.1,38.6,30.1z"/>
			<path id="XMLID_545_" class="st4" d="M27.3,17.5v-3.2c0-2.6,2.1-4.7,4.7-4.7l0,0c2.6,0,4.7,2.1,4.7,4.7v3.2"/>
			<circle id="XMLID_541_" class="st4" cx="32" cy="23.8" r="2.4"/>
		</g>
		<polyline id="XMLID_560_" class="st2" points="41,27.7 47.3,27.7 47.3,37.1 17.5,37.1 17.5,27.7 22.7,27.7 		"/>
		<line id="XMLID_561_" class="st2" x1="21.3" y1="32.8" x2="22.9" y2="32.8"/>
		<line id="XMLID_550_" class="st2" x1="26.6" y1="32.8" x2="28.3" y2="32.8"/>
		<line id="XMLID_562_" class="st2" x1="31.9" y1="32.8" x2="33.6" y2="32.8"/>
		<line id="XMLID_563_" class="st2" x1="37.3" y1="32.8" x2="38.9" y2="32.8"/>
		<line id="XMLID_564_" class="st2" x1="42.6" y1="32.8" x2="44.3" y2="32.8"/>
	</g>
	<g id="XMLID_581_" class="st0">
		<g id="XMLID_565_" class="st3">
			<path id="XMLID_568_" class="st4" d="M54.2,53.8H9.8c-0.1,0-0.2-0.1-0.2-0.2l-1-5c0-0.1,0.1-0.3,0.2-0.3h20.1l1,1h4.1l1-1h20.1
				c0.1,0,0.3,0.1,0.2,0.3l-1,5C54.4,53.7,54.3,53.8,54.2,53.8z"/>
			<path id="XMLID_567_" class="st4" d="M15.3,18.9h-3.9c-0.2,0-0.3,0.1-0.3,0.3V46"/>
			<path id="XMLID_566_" class="st4" d="M52.9,46V19.3c0-0.2-0.1-0.3-0.3-0.3H49"/>
		</g>
		<rect id="XMLID_557_" x="17.5" y="10.2" class="st2" width="29.2" height="33.5"/>
		<polyline id="XMLID_237_" class="st2" points="17.5,30.7 27.5,22.3 31.5,26.1 46.8,14.8 		"/>
		<line id="XMLID_246_" class="st2" x1="20.8" y1="28" x2="20.8" y2="43.8"/>
		<line id="XMLID_223_" class="st2" x1="24" y1="24.6" x2="24" y2="43.8"/>
		<line id="XMLID_247_" class="st2" x1="27.3" y1="22.7" x2="27.3" y2="43.8"/>
		<line id="XMLID_554_" class="st2" x1="30.5" y1="25.2" x2="30.5" y2="43.8"/>
		<line id="XMLID_569_" class="st2" x1="33.7" y1="24.6" x2="33.7" y2="43.8"/>
		<line id="XMLID_570_" class="st2" x1="36.9" y1="22" x2="36.9" y2="43.8"/>
		<line id="XMLID_571_" class="st2" x1="40.2" y1="19.7" x2="40.2" y2="43.8"/>
		<line id="XMLID_572_" class="st2" x1="43.4" y1="16.8" x2="43.4" y2="43.8"/>
		<line id="XMLID_577_" class="st2" x1="17.5" y1="15.8" x2="40.3" y2="15.8"/>
		<line id="XMLID_579_" class="st2" x1="20.8" y1="13.1" x2="23.1" y2="13.1"/>
		<line id="XMLID_575_" class="st2" x1="24.8" y1="13.1" x2="27.1" y2="13.1"/>
		<line id="XMLID_580_" class="st2" x1="28.8" y1="13.1" x2="31.1" y2="13.1"/>
	</g>
</g>
<g id="Icon_text" class="st0">
	<g id="XMLID_55_" class="st3">
		<text id="XMLID_400_" transform="matrix(1 0 0 1 -164.5314 -76.9584)" class="st7 st8 st9">CODING</text>
	</g>
	<g id="XMLID_85_" class="st3">
		<text id="XMLID_401_" transform="matrix(1 0 0 1 -83.6719 -76.9582)" class="st7 st8 st9">WIREFRAMES</text>
	</g>
	<g id="XMLID_87_" class="st3">
		<text id="XMLID_417_" transform="matrix(1 0 0 1 6.2439 -76.9584)" class="st7 st8 st9">UI/UX DESIGN</text>
	</g>
	<g id="XMLID_123_" class="st3">
		<text id="XMLID_444_" transform="matrix(1 0 0 1 106.3691 -76.9582)" class="st7 st8 st9">STARTUP</text>
	</g>
	<g id="XMLID_137_" class="st3">
		<text id="XMLID_448_" transform="matrix(1 0 0 1 190.7363 -76.9584)"><tspan x="0" y="0" class="st7 st8 st9">RESPONSIVE</tspan><tspan x="9.4" y="7" class="st7 st8 st9">DESIGN</tspan></text>
	</g>
	<g id="XMLID_164_" class="st3">
		<text id="XMLID_457_" transform="matrix(1 0 0 1 -165.8193 19)"><tspan x="0" y="0" class="st7 st8 st9">WEBSITE</tspan><tspan x="-11.5" y="7" class="st7 st8 st9">DEVELOPMENT</tspan></text>
	</g>
	<g id="XMLID_161_" class="st3">
		<text id="XMLID_461_" transform="matrix(1 0 0 1 -67.2364 19.0001)"><tspan x="0" y="0" class="st7 st8 st9">WEB</tspan><tspan x="-18.8" y="7" class="st7 st8 st9">OPTIMIZATION</tspan></text>
	</g>
	<g id="XMLID_190_" class="st3">
		<text id="XMLID_472_" transform="matrix(1 0 0 1 17.1363 19)" class="st7 st8 st9">TESTING</text>
	</g>
	<g id="XMLID_194_" class="st3">
		<text id="XMLID_476_" transform="matrix(1 0 0 1 108.6015 19.0001)" class="st7 st8 st9">LAYOUT</text>
	</g>
	<g id="XMLID_245_" class="st3">
		<text id="XMLID_479_" transform="matrix(1 0 0 1 193.0124 19.0001)" class="st7 st8 st9">SPEEDTEST</text>
	</g>
	<g id="XMLID_272_" class="st3">
		<text id="XMLID_480_" transform="matrix(1 0 0 1 -157.2265 115.4166)"><tspan x="0" y="0" class="st7 st8 st9">APP</tspan><tspan x="-20.2" y="7" class="st7 st8 st9">DEVELOPMENT</tspan></text>
	</g>
	<g id="XMLID_302_" class="st3">
		<text id="XMLID_482_" transform="matrix(1 0 0 1 -72.1902 115.4166)"><tspan x="0" y="0" class="st7 st8 st9">CLOUD</tspan><tspan x="-4.6" y="7" class="st7 st8 st9">STORAGE</tspan></text>
	</g>
	<g id="XMLID_288_" class="st3">
		<text id="XMLID_484_" transform="matrix(1 0 0 1 3.7994 115.417)"><tspan x="0" y="0" class="st7 st8 st9">THINK OUTSIDE</tspan><tspan x="6.5" y="7" class="st7 st8 st9">OF THE BOX</tspan></text>
	</g>
	<g id="XMLID_312_" class="st3">
		<text id="XMLID_485_" transform="matrix(1 0 0 1 110.5505 115.4166)"><tspan x="0" y="0" class="st7 st8 st9">CLOUD</tspan><tspan x="-9.8" y="7" class="st7 st8 st9">COMPUTING</tspan></text>
	</g>
	<g id="XMLID_363_" class="st3">
		<text id="XMLID_596_" transform="matrix(1 0 0 1 196.549 115.4166)"><tspan x="0" y="0" class="st7 st8 st9">CONTENT</tspan><tspan x="-4.7" y="7" class="st7 st8 st9">PLACEMENT</tspan></text>
	</g>
	<g id="XMLID_415_" class="st3">
		<text id="XMLID_597_" transform="matrix(1 0 0 1 -158.0214 212.167)"><tspan x="0" y="0" class="st7 st8 st9">WEB</tspan><tspan x="-6.5" y="7" class="st7 st8 st9">CODING</tspan></text>
	</g>
	<g id="XMLID_432_" class="st3">
		<text id="XMLID_598_" transform="matrix(1 0 0 1 -64.5105 212.167)"><tspan x="0" y="0" class="st7 st8 st9">API</tspan><tspan x="-14.4" y="7" class="st7 st8 st9">INTERFACE</tspan></text>
	</g>
	<g id="XMLID_441_" class="st3">
		<text id="XMLID_599_" transform="matrix(1 0 0 1 23.8896 212.1666)"><tspan x="0" y="0" class="st7 st8 st9">WEB</tspan><tspan x="-15" y="7" class="st7 st8 st9">NAVIGATION</tspan></text>
	</g>
	<g id="XMLID_447_" class="st3">
		<text id="XMLID_600_" transform="matrix(1 0 0 1 104.7736 212.1666)"><tspan x="0" y="0" class="st7 st8 st9">USABILITY</tspan><tspan x="3" y="7" class="st7 st8 st9">TESTING</tspan></text>
	</g>
	<g id="XMLID_490_" class="st3">
		<text id="XMLID_601_" transform="matrix(1 0 0 1 204.5703 212.1663)"><tspan x="0" y="0" class="st7 st8 st9">USER</tspan><tspan x="-15.5" y="7" class="st7 st8 st9">INTERACTION</tspan></text>
	</g>
	<g id="XMLID_474_" class="st3">
		<text id="XMLID_602_" transform="matrix(1 0 0 1 -157.5521 306.4167)"><tspan x="0" y="0" class="st7 st8 st9">SITE</tspan><tspan x="-19.8" y="7" class="st7 st8 st9">MAINTENANCE</tspan></text>
	</g>
	<g id="XMLID_499_" class="st3">
		<text id="XMLID_603_" transform="matrix(1 0 0 1 -72.879 306.4163)"><tspan x="0" y="0" class="st7 st8 st9">SMART </tspan><tspan x="-5" y="7" class="st7 st8 st9">SOLUTION</tspan></text>
	</g>
	<g id="XMLID_544_" class="st3">
		<text id="XMLID_604_" transform="matrix(1 0 0 1 19.3742 306.4167)"><tspan x="0" y="0" class="st7 st8 st9">ADMIN</tspan><tspan x="-18.3" y="7" class="st7 st8 st9">CONTROL PANEL</tspan></text>
	</g>
	<g id="XMLID_546_" class="st3">
		<text id="XMLID_605_" transform="matrix(1 0 0 1 108.6133 306.4163)"><tspan x="0" y="0" class="st7 st8 st9">SECURE</tspan><tspan x="3" y="7" class="st7 st8 st9">LOGIN</tspan></text>
	</g>
	<g id="XMLID_582_" class="st3">
		<text id="XMLID_606_" transform="matrix(1 0 0 1 205.7331 306.4167)"><tspan x="0" y="0" class="st7 st8 st9">WEB</tspan><tspan x="-9.6" y="7" class="st7 st8 st9">ANALYSIS</tspan></text>
	</g>
</g>
<g id="headline" class="st0">
	<circle id="XMLID_61_" class="st10" cx="-133.5" cy="-208.4" r="18.3"/>
	<circle id="XMLID_60_" class="st11" cx="-110.1" cy="-208.4" r="18.3"/>
	<circle id="XMLID_63_" class="st12" cx="-122.7" cy="-190.1" r="18.3"/>
	<g id="XMLID_1_" class="st3">
		<text id="XMLID_607_" transform="matrix(1 0 0 1 -183.7552 -194.0852)"><tspan x="0" y="0" style="fill:#231F20; font-family:'Oswald-Bold'; font-size:22.512px;">FLAT </tspan><tspan x="45.5" y="0" style="fill:#231F20; font-family:'Oswald-Light'; font-size:22.512px;">LINE </tspan><tspan x="83.9" y="0" style="fill:#231F20; font-family:'Oswald-Bold'; font-size:22.512px;">ICONS</tspan></text>
	</g>
	<g id="XMLID_2_" class="st3">
		
			<text id="XMLID_608_" transform="matrix(1 0 0 1 66.0416 -193.9056)" style="fill:#231F20; font-family:'Oswald-Light'; font-size:16.1735px;">WEB DESIGN &amp; DEVELOPMENT</text>
	</g>
</g>
</svg>
